<svg width="159" height="149" viewBox="0 0 159 149" fill="none" xmlns="http://www.w3.org/2000/svg">
<rect width="159" height="149" fill="white"/>
<mask id="path-1-inside-1_15_29" fill="white">
<path fill-rule="evenodd" clip-rule="evenodd" d="M28.2905 55.8489C28.2905 65.2626 33.2604 73.5392 40.7701 78.2983L79.7164 119.869L119.685 77.4328C126.368 72.5727 130.709 64.7152 130.709 55.8489C130.709 41.093 118.685 29.1309 103.852 29.1309C93.3929 29.1309 84.33 35.0789 79.8949 43.7602C75.3909 35.0789 66.1871 29.1309 55.5652 29.1309C40.5018 29.1309 28.2905 41.093 28.2905 55.8489Z"/>
</mask>
<path fill-rule="evenodd" clip-rule="evenodd" d="M28.2905 55.8489C28.2905 65.2626 33.2604 73.5392 40.7701 78.2983L79.7164 119.869L119.685 77.4328C126.368 72.5727 130.709 64.7152 130.709 55.8489C130.709 41.093 118.685 29.1309 103.852 29.1309C93.3929 29.1309 84.33 35.0789 79.8949 43.7602C75.3909 35.0789 66.1871 29.1309 55.5652 29.1309C40.5018 29.1309 28.2905 41.093 28.2905 55.8489Z" fill="white"/>
<path d="M40.7701 78.2983L45.8785 73.5124C45.4741 73.0808 45.0167 72.7022 44.5171 72.3856L40.7701 78.2983ZM79.7164 119.869L74.608 124.655C75.9293 126.065 77.7747 126.867 79.7071 126.869C81.6396 126.872 83.4872 126.075 84.8121 124.668L79.7164 119.869ZM119.685 77.4328L115.568 71.7715C115.216 72.0277 114.888 72.3163 114.59 72.6334L119.685 77.4328ZM79.8949 43.7602L73.6814 46.9839C74.8888 49.311 77.2953 50.7684 79.9169 50.7602C82.5386 50.752 84.9359 49.2795 86.1286 46.9448L79.8949 43.7602ZM44.5171 72.3856C38.9098 68.8322 35.2905 62.7225 35.2905 55.8489H21.2905C21.2905 67.8028 27.6109 78.2463 37.0231 84.211L44.5171 72.3856ZM84.8248 115.083L45.8785 73.5124L35.6617 83.0842L74.608 124.655L84.8248 115.083ZM114.59 72.6334L74.6207 115.07L84.8121 124.668L124.781 82.2322L114.59 72.6334ZM123.709 55.8489C123.709 62.3719 120.525 68.1665 115.568 71.7715L123.802 83.0941C132.211 76.979 137.709 67.0584 137.709 55.8489H123.709ZM103.852 36.1309C114.853 36.1309 123.709 44.9932 123.709 55.8489H137.709C137.709 37.1927 122.517 22.1309 103.852 22.1309V36.1309ZM86.1286 46.9448C89.4077 40.5263 96.1099 36.1309 103.852 36.1309V22.1309C90.6759 22.1309 79.2524 29.6314 73.6613 40.5756L86.1286 46.9448ZM55.5652 36.1309C63.5268 36.1309 70.3595 40.581 73.6814 46.9839L86.1085 40.5366C80.4223 29.5767 68.8475 22.1309 55.5652 22.1309V36.1309ZM35.2905 55.8489C35.2905 45.0943 44.231 36.1309 55.5652 36.1309V22.1309C36.7726 22.1309 21.2905 37.0916 21.2905 55.8489H35.2905Z" fill="black" mask="url(#path-1-inside-1_15_29)"/>
</svg>
