<svg width="159" height="149" viewBox="0 0 159 149" fill="none" xmlns="http://www.w3.org/2000/svg">
<rect width="159" height="149" fill="white"/>
<path d="M32.8677 121.186C32.8677 121.186 32.8678 114.209 32.8677 106.082C32.8676 101.207 38.4029 98.525 42.2178 95.4898C46.9855 91.6967 49.0711 89.8998 55.1636 89.8998C63.4244 89.8998 77.8238 89.8999 77.8238 89.8999C87.0927 89.8999 91.206 89.8998 100.475 89.8998C109.744 89.8998 111.334 92.3607 116.31 96.7989C121.153 101.119 121.355 100.738 123.85 106.082C126.345 111.427 126.128 122.325 126.128 122.325" stroke="black" stroke-width="9"/>
<path d="M100.694 51.4396C100.694 62.9375 91.4549 72.2046 80.1235 72.2046C68.7922 72.2046 59.5527 62.9375 59.5527 51.4396C59.5527 39.9417 68.7922 30.6747 80.1235 30.6747C91.4549 30.6747 100.694 39.9417 100.694 51.4396Z" stroke="black" stroke-width="8"/>
</svg>
